<svg width="1920" height="720" viewBox="0 0 1920 720" fill="none" xmlns="http://www.w3.org/2000/svg">
    <rect width="1920" height="720" fill="#050505" />
    <g opacity="0.85">
        <circle cx="260" cy="180" r="360" fill="url(#paint0_radial)" />
        <circle cx="1620" cy="120" r="360" fill="url(#paint1_radial)" />
        <ellipse cx="1520" cy="540" rx="480" ry="260" fill="url(#paint2_radial)" />
    </g>
    <path d="M0 540L1920 320V720H0V540Z" fill="url(#paint3_linear)" />
    <path d="M0 0H1920V180C1450 250 870 140 0 240V0Z" fill="url(#paint4_linear)" />
    <g opacity="0.4" stroke="url(#paint5_linear)" stroke-width="1.2">
        <path d="M-120 520C360 440 1140 460 1920 620" />
        <path d="M-80 120C540 220 1380 200 2080 40" />
    </g>
    <g opacity="0.28" stroke="url(#paint6_linear)" stroke-width="1.4">
        <path d="M-140 640C480 560 1180 600 1980 740" />
    </g>
    <defs>
        <radialGradient id="paint0_radial" cx="0" cy="0" r="1" gradientUnits="userSpaceOnUse" gradientTransform="translate(260 180) rotate(45) scale(360)">
            <stop offset="0" stop-color="#F7931A" />
            <stop offset="0.55" stop-color="#F7931A" stop-opacity="0.45" />
            <stop offset="1" stop-color="#F7931A" stop-opacity="0" />
        </radialGradient>
        <radialGradient id="paint1_radial" cx="0" cy="0" r="1" gradientUnits="userSpaceOnUse" gradientTransform="translate(1620 120) rotate(45) scale(360)">
            <stop offset="0" stop-color="#FFB347" />
            <stop offset="0.6" stop-color="#F7931A" stop-opacity="0.38" />
            <stop offset="1" stop-color="#F7931A" stop-opacity="0" />
        </radialGradient>
        <radialGradient id="paint2_radial" cx="0" cy="0" r="1" gradientUnits="userSpaceOnUse" gradientTransform="translate(1520 540) rotate(15) scale(520 280)">
            <stop offset="0" stop-color="#F7931A" stop-opacity="0.32" />
            <stop offset="1" stop-color="#F7931A" stop-opacity="0" />
        </radialGradient>
        <linearGradient id="paint3_linear" x1="960" y1="320" x2="960" y2="720" gradientUnits="userSpaceOnUse">
            <stop offset="0" stop-color="#F7931A" stop-opacity="0.22" />
            <stop offset="1" stop-color="#050505" stop-opacity="0.9" />
        </linearGradient>
        <linearGradient id="paint4_linear" x1="960" y1="0" x2="960" y2="260" gradientUnits="userSpaceOnUse">
            <stop offset="0" stop-color="#101010" stop-opacity="0.05" />
            <stop offset="1" stop-color="#101010" stop-opacity="0.65" />
        </linearGradient>
        <linearGradient id="paint5_linear" x1="0" y1="160" x2="1920" y2="560" gradientUnits="userSpaceOnUse">
            <stop offset="0" stop-color="#F7931A" stop-opacity="0.35" />
            <stop offset="1" stop-color="#F7931A" stop-opacity="0" />
        </linearGradient>
        <linearGradient id="paint6_linear" x1="-140" y1="640" x2="1940" y2="760" gradientUnits="userSpaceOnUse">
            <stop offset="0" stop-color="#F7931A" stop-opacity="0.4" />
            <stop offset="1" stop-color="#F7931A" stop-opacity="0" />
        </linearGradient>
    </defs>
</svg>
